<?xml version="1.0" standalone="no"?>
<!DOCTYPE svg PUBLIC "-//W3C//DTD SVG 20010904//EN"
 "http://www.w3.org/TR/2001/REC-SVG-20010904/DTD/svg10.dtd">
<svg version="1.0" xmlns="http://www.w3.org/2000/svg"
 width="24.000000pt" height="24.000000pt" viewBox="0 0 24.000000 24.000000"
 preserveAspectRatio="xMidYMid meet">
<metadata>
Created by potrace 1.16, written by Peter Selinger 2001-2019
</metadata>
<g transform="translate(0.000000,24.000000) scale(0.100000,-0.100000)"
fill="#000000" stroke="none">
<path d="M0 120 l0 -120 40 0 40 0 0 43 c0 26 -8 51 -20 67 -11 14 -20 36 -20
50 0 30 28 66 55 73 11 3 -6 5 -37 6 l-58 1 0 -120z"/>
<path d="M145 233 c27 -7 55 -43 55 -73 0 -14 -9 -36 -20 -50 -12 -16 -20 -41
-20 -67 l0 -43 40 0 40 0 0 120 0 120 -57 -1 c-32 -1 -49 -3 -38 -6z"/>
</g>
</svg>
