<?xml version="1.0" standalone="no"?>
<!DOCTYPE svg PUBLIC "-//W3C//DTD SVG 20010904//EN"
 "http://www.w3.org/TR/2001/REC-SVG-20010904/DTD/svg10.dtd">
<svg version="1.0" xmlns="http://www.w3.org/2000/svg"
 width="24.000000pt" height="24.000000pt" viewBox="0 0 24.000000 24.000000"
 preserveAspectRatio="xMidYMid meet">
<metadata>
Created by potrace 1.16, written by Peter Selinger 2001-2019
</metadata>
<g transform="translate(0.000000,24.000000) scale(0.100000,-0.100000)"
fill="#000000" stroke="none">
<path d="M0 119 l0 -119 58 1 c31 0 51 3 45 6 -24 9 -13 23 17 23 30 0 41 -14
18 -23 -7 -3 13 -6 45 -6 l57 -1 0 119 0 120 -120 0 -120 0 0 -120z m127 99
c8 21 51 -44 58 -88 4 -22 13 -44 21 -51 28 -23 12 -29 -86 -29 -98 0 -114 6
-86 29 8 7 17 28 21 49 8 48 46 105 58 89 6 -9 10 -9 14 1z"/>
</g>
</svg>
