<?xml version="1.0" standalone="no"?>
<!DOCTYPE svg PUBLIC "-//W3C//DTD SVG 20010904//EN"
 "http://www.w3.org/TR/2001/REC-SVG-20010904/DTD/svg10.dtd">
<svg version="1.0" xmlns="http://www.w3.org/2000/svg"
 width="24.000000pt" height="24.000000pt" viewBox="0 0 24.000000 24.000000"
 preserveAspectRatio="xMidYMid meet">
<metadata>
Created by potrace 1.16, written by Peter Selinger 2001-2019
</metadata>
<g transform="translate(0.000000,24.000000) scale(0.100000,-0.100000)"
fill="#000000" stroke="none">
<path d="M2 128 c0 -62 3 -98 5 -81 l4 33 109 0 109 0 4 -32 c2 -18 5 18 5 80
l2 112 -45 0 c-25 0 -45 -4 -45 -10 0 -5 -8 -10 -17 -10 -14 0 -12 -3 6 -13
13 -6 31 -22 39 -34 l14 -23 -71 0 c-39 0 -71 4 -71 9 0 5 13 21 30 34 43 37
38 47 -25 47 l-55 0 2 -112z"/>
</g>
</svg>
