<?xml version="1.0" standalone="no"?>
<!DOCTYPE svg PUBLIC "-//W3C//DTD SVG 20010904//EN"
 "http://www.w3.org/TR/2001/REC-SVG-20010904/DTD/svg10.dtd">
<svg version="1.0" xmlns="http://www.w3.org/2000/svg"
 width="800.000000pt" height="800.000000pt" viewBox="0 0 800.000000 800.000000"
 preserveAspectRatio="xMidYMid meet">
<metadata>
Created by potrace 1.16, written by Peter Selinger 2001-2019
</metadata>
<g transform="translate(0.000000,800.000000) scale(0.100000,-0.100000)"
fill="#000000" stroke="none">
<path d="M0 4000 l0 -4000 4000 0 4000 0 0 4000 0 4000 -4000 0 -4000 0 0
-4000z m4576 3430 l559 -510 3 430 2 430 485 0 485 0 0 -879 0 -879 828 -752
c455 -414 827 -756 827 -760 0 -8 -575 -630 -582 -630 -1 0 -130 116 -285 259
l-283 258 -3 -2168 -2 -2169 -2610 0 -2610 0 -2 2185 -3 2185 -289 -261 c-159
-143 -292 -256 -296 -252 -4 4 -132 149 -285 322 -204 229 -276 317 -269 327
9 12 3763 3374 3769 3374 1 0 254 -229 561 -510z"/>
<path d="M2690 4124 c-68 -31 -114 -74 -148 -139 -36 -67 -38 -195 -6 -265 66
-143 240 -215 385 -161 120 46 199 156 199 281 0 97 -23 155 -89 221 -66 66
-124 89 -220 89 -50 0 -80 -7 -121 -26z"/>
<path d="M5069 4127 c-171 -48 -267 -204 -225 -366 46 -178 201 -267 396 -227
170 36 307 140 380 291 21 44 42 96 46 115 l6 35 -23 -21 c-37 -33 -64 -44
-109 -44 -58 0 -93 22 -140 86 -47 62 -106 109 -159 124 -61 18 -124 20 -172
7z"/>
<path d="M2351 3449 c-106 -21 -206 -99 -263 -203 l-33 -61 -3 -550 c-2 -538
-2 -551 18 -583 39 -64 144 -80 197 -30 54 50 53 42 53 530 0 249 4 459 9 466
4 8 19 12 32 10 l24 -3 5 -1215 c6 -1347 0 -1250 71 -1316 95 -88 234 -61 293
57 l26 53 0 695 c0 383 4 702 9 709 4 8 19 12 32 10 l24 -3 5 -710 c6 -786 2
-747 71 -811 95 -88 234 -61 293 57 l26 53 0 1202 c0 1287 -2 1232 47 1222 17
-3 18 -31 23 -474 l5 -471 27 -35 c60 -78 180 -70 224 14 21 41 21 1051 0
1122 -33 108 -103 187 -215 240 l-66 31 -445 2 c-245 1 -465 -3 -489 -8z"/>
<path d="M4807 3438 c-143 -18 -267 -120 -311 -257 -8 -25 -43 -279 -76 -564
-60 -512 -61 -519 -43 -555 27 -53 65 -77 122 -76 62 1 104 30 125 87 9 23 38
238 66 482 28 242 55 450 60 463 12 28 56 31 65 3 3 -10 -13 -157 -35 -327
l-40 -309 0 -898 c0 -871 1 -899 20 -936 71 -141 262 -144 334 -6 21 39 21 52
24 744 2 495 6 708 13 718 14 16 45 17 56 1 4 -7 10 -335 13 -729 l5 -716 28
-40 c37 -54 92 -83 156 -83 58 0 93 15 133 57 60 63 58 23 58 951 l0 848 -40
339 c-23 187 -40 353 -38 370 3 34 36 46 57 21 7 -8 35 -202 66 -463 30 -246
59 -465 65 -485 11 -40 57 -84 97 -94 67 -17 163 54 163 120 0 86 -122 1033
-140 1083 -40 114 -149 216 -258 242 -54 13 -655 20 -745 9z"/>
<path d="M3893 1861 c-56 -26 -95 -86 -100 -154 -5 -62 16 -107 70 -151 98
-79 255 -17 282 111 15 72 -35 160 -110 194 -51 24 -89 23 -142 0z"/>
<path d="M3715 1456 c-37 -16 -70 -52 -84 -89 -6 -16 -11 -99 -11 -186 0 -152
1 -158 23 -179 28 -27 58 -28 86 -4 19 15 21 28 22 133 1 123 7 146 33 136 14
-6 16 -48 16 -392 l0 -386 25 -24 c31 -32 74 -33 103 -2 21 22 22 32 22 219 0
202 3 228 25 228 22 0 25 -26 25 -229 0 -194 0 -198 23 -219 31 -29 72 -28
102 3 l25 24 0 386 c0 344 2 386 16 392 26 10 32 -13 33 -136 1 -105 3 -118
22 -133 28 -24 64 -23 89 2 18 18 20 33 20 173 0 126 -4 159 -19 192 -21 46
-54 79 -94 94 -43 17 -464 14 -502 -3z"/>
</g>
</svg>
