<?xml version="1.0" standalone="no"?>
<!DOCTYPE svg PUBLIC "-//W3C//DTD SVG 20010904//EN"
 "http://www.w3.org/TR/2001/REC-SVG-20010904/DTD/svg10.dtd">
<svg version="1.0" xmlns="http://www.w3.org/2000/svg"
 width="840.000000pt" height="859.000000pt" viewBox="0 0 840.000000 859.000000"
 preserveAspectRatio="xMidYMid meet">
<metadata>
Created by potrace 1.16, written by Peter Selinger 2001-2019
</metadata>
<g transform="translate(0.000000,859.000000) scale(0.100000,-0.100000)"
fill="#000000" stroke="none">
<path d="M4127 8468 c-131 -168 -317 -327 -477 -408 -190 -95 -327 -125 -550
-117 -181 6 -316 35 -500 110 l-110 45 -29 -41 c-15 -23 -74 -116 -131 -207
-56 -91 -133 -206 -171 -256 -86 -114 -232 -255 -342 -328 -164 -109 -425
-216 -658 -271 l-76 -18 106 -106 c129 -128 195 -214 261 -342 95 -184 139
-365 159 -649 6 -80 13 -789 16 -1590 4 -868 10 -1477 16 -1525 23 -184 97
-404 191 -570 147 -260 331 -440 563 -551 142 -68 222 -89 447 -119 251 -34
445 -70 624 -115 204 -52 287 -81 430 -150 132 -64 209 -119 255 -182 37 -52
63 -55 89 -12 121 196 600 363 1314 458 230 31 310 52 452 121 239 116 431
307 578 576 80 146 153 374 175 544 6 49 12 645 16 1535 6 1444 11 1637 41
1820 54 318 192 572 432 791 l72 65 -77 18 c-134 31 -343 104 -462 161 -152
74 -263 149 -373 253 -115 110 -201 221 -324 420 -54 86 -115 182 -135 214
l-38 56 -111 -45 c-180 -73 -319 -104 -493 -110 -164 -6 -255 4 -382 44 -227
72 -463 244 -647 474 -39 49 -74 89 -78 89 -5 0 -37 -37 -73 -82z m138 -64
c221 -276 526 -461 829 -503 217 -30 473 7 714 105 47 18 87 33 88 31 1 -1 58
-90 125 -197 67 -107 147 -229 178 -270 76 -104 229 -254 330 -325 152 -107
407 -221 603 -270 35 -9 69 -18 75 -20 7 -2 -18 -35 -58 -77 -155 -159 -276
-358 -333 -548 -59 -195 -86 -470 -86 -872 l0 -218 -614 0 -613 0 -7 46 c-3
26 -6 67 -6 92 0 61 -27 241 -50 332 -51 202 -138 400 -247 563 -79 119 -218
267 -327 349 -106 78 -276 161 -401 195 -89 24 -118 27 -265 27 -147 0 -176
-3 -265 -27 -522 -140 -927 -663 -1010 -1302 -8 -66 -18 -155 -21 -197 l-6
-78 -614 0 -614 0 0 203 c0 265 -16 544 -40 681 -53 308 -165 532 -379 754
-38 40 -65 75 -58 77 7 2 61 17 120 34 350 101 620 263 813 489 83 97 124 156
260 372 60 96 112 177 115 182 3 4 43 -7 90 -26 244 -98 496 -136 715 -105
303 42 608 227 829 503 33 41 62 75 65 75 3 0 32 -34 65 -75z m210 -1638 c191
-57 368 -166 516 -318 477 -490 596 -1335 283 -1997 -192 -405 -507 -672 -889
-752 -84 -18 -303 -15 -391 4 -552 124 -963 663 -1034 1356 -78 774 334 1516
947 1701 113 34 158 39 323 36 132 -3 168 -8 245 -30z m1191 -3185 c28 -15 32
-20 17 -23 -10 -3 8 -10 40 -18 59 -14 74 -37 21 -32 l-29 2 31 -17 c60 -35
77 -51 70 -68 -5 -13 -13 -15 -38 -10 l-33 7 29 -31 c17 -17 36 -31 43 -31 7
0 13 -4 13 -10 0 -5 -6 -10 -14 -10 -8 0 -18 5 -21 10 -3 6 -12 10 -18 10 -9
0 -9 -2 0 -8 12 -7 36 -63 32 -72 -1 -3 -12 -4 -23 -2 -19 3 -19 2 4 -14 14
-10 27 -19 28 -20 13 -10 -16 -49 -47 -62 -20 -10 -37 -21 -36 -27 0 -5 -10
-11 -22 -13 -14 -2 -23 2 -23 10 0 10 -3 9 -10 -2 -5 -9 -5 -19 0 -26 6 -6 8
-14 5 -18 -3 -3 1 -2 7 4 15 12 28 13 28 1 0 -19 -33 -20 -71 -1 -21 11 -39
16 -39 10 0 -5 7 -10 15 -10 8 0 15 -6 15 -13 0 -14 -39 -41 -47 -33 -3 3 -14
1 -25 -5 -17 -9 -19 -8 -14 8 3 10 1 25 -4 33 -8 12 -10 8 -11 -15 -1 -22 -3
-24 -6 -9 -4 21 -5 21 -59 -8 -53 -29 -54 -29 -54 -8 0 12 14 35 31 51 42 40
26 37 -21 -3 -21 -18 -54 -43 -74 -55 l-36 -22 0 24 c0 13 14 40 30 58 34 40
37 47 13 47 -9 0 -14 -3 -10 -6 3 -4 -4 -21 -17 -38 -30 -40 -39 -71 -31 -104
l7 -27 14 27 c12 23 59 58 79 58 3 0 5 -11 5 -24 l0 -24 54 29 54 29 5 -27 c4
-20 -2 -39 -19 -64 -13 -19 -24 -43 -24 -53 0 -27 27 -71 60 -100 28 -23 40
-26 106 -26 42 0 85 -5 97 -11 32 -17 77 -61 77 -76 0 -7 12 -20 26 -29 55
-37 138 17 138 90 0 20 -13 53 -33 85 -20 31 -36 70 -39 96 -4 41 -1 48 31 80
37 37 55 41 122 25 47 -11 75 -41 75 -81 0 -33 -16 -39 -25 -10 -7 24 -44 38
-55 21 -5 -9 -15 -3 -31 19 -27 36 -48 39 -74 11 -29 -32 -22 -83 19 -150 55
-88 47 -159 -22 -202 -30 -19 -84 -26 -121 -17 -8 2 -17 -5 -20 -16 -3 -11
-14 -32 -24 -46 -24 -36 -37 -85 -37 -141 0 -48 8 -59 44 -63 11 -1 24 -3 29
-4 12 -2 7 -65 -6 -81 -7 -9 -24 -25 -38 -36 -15 -11 -49 -47 -76 -79 -83 -99
-101 -115 -127 -115 -23 0 -25 2 -15 26 5 15 7 29 5 32 -3 2 -8 -7 -11 -21 -4
-14 -15 -27 -26 -30 -15 -4 -19 0 -20 21 l0 27 -12 -25 -11 -25 -3 27 c-7 45
12 68 56 68 25 0 44 7 56 20 10 11 24 20 31 20 17 0 74 77 74 99 0 30 -27 56
-95 90 -77 40 -88 54 -106 134 -17 81 -63 132 -126 142 -88 13 -148 42 -201
98 -54 58 -82 104 -82 137 0 26 4 26 90 -9 67 -28 100 -31 100 -10 0 5 7 9 15
9 8 0 15 4 15 8 0 5 17 14 38 20 21 6 51 25 67 42 37 39 23 39 -21 0 -20 -17
-51 -33 -74 -36 -22 -4 -40 -10 -40 -15 0 -5 -7 -9 -16 -9 -8 0 -13 -4 -10 -9
8 -13 -31 -4 -109 24 -38 13 -82 25 -97 25 -14 0 -28 5 -30 12 -3 8 -14 5 -34
-9 -39 -28 -114 -30 -114 -3 0 10 6 21 13 23 9 4 9 6 -1 6 -7 1 -15 -6 -18
-14 -7 -18 -24 -10 -24 11 0 8 10 19 23 24 12 5 16 9 8 9 -8 1 -23 -6 -33 -16
-16 -14 -18 -14 -18 0 0 21 27 47 48 47 10 0 32 -4 49 -9 20 -6 35 -6 38 0 4
5 50 6 109 2 l102 -6 63 57 c35 31 68 56 74 56 6 0 8 3 5 6 -4 3 -16 0 -28 -6
-37 -20 -21 20 19 47 29 20 47 23 128 23 60 0 92 4 88 10 -3 6 -18 10 -33 10
l-27 1 25 14 c14 8 49 14 79 15 30 0 52 3 48 6 -3 4 -25 6 -47 6 -51 -1 -49
14 6 45 22 13 32 23 22 23 -9 0 -36 -18 -59 -40 -57 -54 -83 -70 -116 -70 -74
0 -163 -50 -163 -91 0 -29 -79 -99 -111 -99 -21 0 -29 5 -29 17 0 19 41 83 53
83 4 0 7 8 7 18 0 14 2 15 10 2 8 -12 10 -9 10 11 0 15 9 37 20 50 18 23 19
23 20 4 0 -18 2 -17 13 4 6 14 18 26 26 29 9 3 11 0 5 -9 -7 -12 -5 -12 9 -1
12 10 31 12 65 7 56 -7 78 8 68 49 -5 22 -8 23 -36 13 -34 -13 -63 -2 -68 25
-2 11 3 14 20 11 30 -6 61 27 56 59 -2 19 -9 23 -36 24 -18 0 -37 6 -42 14
-14 22 8 40 43 35 27 -4 26 -3 -6 6 -21 6 -37 15 -35 20 4 12 218 18 243 7 16
-7 14 -4 -5 12 l-24 22 24 19 c32 24 71 24 116 0z m-3200 -154 c128 -95 186
-168 192 -241 4 -49 2 -54 -28 -80 -30 -25 -32 -30 -27 -74 7 -62 49 -102 107
-102 33 0 40 3 40 19 0 26 44 113 70 136 32 29 24 56 -35 119 -43 47 -56 56
-61 43 -3 -9 -10 -14 -15 -11 -13 8 -11 70 4 82 6 5 48 10 91 11 91 0 137 -16
199 -72 35 -33 36 -34 11 -29 -25 5 -26 4 -11 -19 8 -13 17 -60 21 -104 5 -73
16 -125 36 -165 17 -36 104 3 126 57 22 51 17 78 -16 106 -26 22 -30 33 -30
75 0 51 21 93 79 156 44 48 263 206 286 206 4 0 -18 -25 -49 -56 -31 -31 -54
-60 -51 -64 3 -5 -9 -20 -27 -35 l-32 -27 35 6 c31 4 33 4 15 -10 -11 -8 -23
-14 -28 -14 -4 0 -8 -8 -8 -18 0 -11 -10 -24 -22 -30 -13 -6 -17 -11 -10 -11
22 -2 13 -19 -15 -29 -25 -9 -25 -11 -6 -11 30 -1 40 -21 11 -22 -17 -1 -18
-3 -5 -6 27 -7 20 -23 -10 -24 -23 -1 -24 -2 -6 -6 36 -7 16 -33 -26 -34 l-36
-1 35 -7 c19 -4 44 -12 55 -19 17 -10 14 -12 -25 -13 -45 -1 -45 -1 -12 -10
37 -11 43 -28 10 -30 -16 -1 -18 -3 -6 -6 9 -2 19 -11 22 -20 5 -13 0 -14 -31
-8 l-38 6 35 -30 c39 -34 39 -35 -9 -21 l-34 10 22 -21 c26 -25 22 -35 -8 -19
-16 8 -21 8 -21 -3 0 -7 5 -18 12 -25 17 -17 1 -27 -18 -11 -16 13 -16 12 -6
-8 17 -32 16 -49 -3 -33 -13 10 -15 9 -15 -11 -1 -23 -1 -23 -15 -5 -14 19
-15 18 -16 -15 l-1 -34 -13 30 -14 30 -1 -27 c0 -33 -20 -48 -21 -16 0 19 -3
17 -14 -12 l-13 -35 -2 45 c-2 73 -10 82 -43 47 l-29 -30 26 7 c30 7 46 -12
23 -29 -15 -11 -15 -13 0 -28 15 -15 15 -17 -8 -26 -19 -8 -20 -10 -5 -10 18
-1 18 -2 3 -19 -10 -10 -17 -28 -17 -39 0 -12 -8 -24 -17 -27 -15 -6 -15 -8
-3 -16 13 -8 12 -12 -5 -24 -11 -9 -27 -16 -35 -16 -13 0 -13 -1 0 -10 8 -5
11 -10 5 -10 -5 0 -3 -4 5 -10 12 -8 12 -11 -3 -28 -9 -10 -17 -31 -17 -45 0
-15 -4 -27 -10 -27 -5 0 -9 -6 -7 -12 1 -8 -12 -14 -34 -16 -33 -3 -39 1 -53
29 -9 18 -16 41 -16 52 0 28 -48 107 -65 107 -22 0 -35 34 -35 92 0 29 -5 60
-10 68 -5 8 -10 11 -11 5 0 -5 -4 -1 -9 10 -8 19 -9 19 -9 -2 -1 -33 -21 -28
-22 5 l0 27 -11 -25 -11 -25 -6 30 c-6 28 -7 29 -19 10 -10 -18 -11 -17 -12
15 -1 34 -1 35 -14 11 -11 -20 -14 -21 -19 -7 -4 10 -11 14 -17 11 -13 -8 -13
11 2 38 10 20 10 21 -6 8 -21 -18 -31 -8 -17 17 16 30 14 34 -10 22 -29 -16
-36 -4 -14 20 19 21 19 21 -9 10 -41 -15 -45 -3 -11 25 l30 25 -32 -6 c-40 -8
-45 12 -8 26 34 13 32 17 -5 12 -39 -6 -38 5 3 23 l32 14 -40 1 c-35 1 -38 2
-20 12 11 7 36 15 55 19 l35 7 -36 1 c-20 0 -42 8 -49 16 -11 13 -8 15 16 16
25 0 26 2 9 8 -11 5 -23 7 -27 4 -5 -2 -8 0 -8 6 0 5 8 12 18 14 13 4 11 5 -5
6 -13 0 -23 6 -23 11 0 6 10 10 23 11 20 1 19 2 -7 13 -25 12 -27 15 -12 23
15 8 14 11 -9 21 -14 6 -25 18 -25 26 0 7 -7 17 -16 20 -23 9 -8 25 19 19 18
-5 16 -1 -10 19 -18 14 -30 28 -26 32 4 3 -20 34 -53 67 l-59 61 41 -20 c23
-12 86 -54 140 -95z m2418 -56 c3 -5 25 -18 48 -30 24 -12 70 -37 103 -56 49
-29 67 -34 100 -31 64 8 73 -4 42 -56 -56 -91 -63 -94 -130 -48 -45 30 -87 80
-67 80 6 0 8 5 5 10 -3 6 -32 10 -63 10 -33 1 -65 7 -75 15 -18 13 -17 14 10
30 l28 16 -27 -6 c-33 -6 -48 13 -23 32 17 12 17 13 2 13 -17 0 -22 11 -10 23
9 10 51 8 57 -2z m570 -748 c28 -44 62 -166 47 -171 -24 -8 -61 -45 -61 -61 0
-9 9 -25 21 -34 33 -28 20 -50 -43 -72 -31 -11 -70 -32 -85 -45 -15 -14 -38
-31 -50 -37 -26 -15 -67 -17 -59 -4 3 4 -6 6 -21 3 -22 -4 -25 -2 -20 14 7 18
6 18 -7 1 -8 -10 -17 -14 -20 -9 -7 11 38 55 47 46 4 -4 21 5 40 19 18 14 50
32 70 41 20 8 37 19 37 24 0 16 -30 36 -69 47 -28 8 -37 16 -39 37 -6 52 66
156 130 189 21 11 41 26 45 34 7 21 10 20 37 -22z m-2377 -223 c51 -31 127
-149 109 -168 -4 -4 -25 3 -47 15 -44 24 -43 25 -27 -29 16 -54 0 -70 -41 -40
l-30 22 -3 -43 c-4 -56 -25 -55 -58 3 -23 41 -25 43 -28 20 -11 -105 -52 -136
-74 -55 l-12 44 -26 -31 c-33 -39 -50 -31 -50 24 l0 41 -23 -21 c-32 -30 -57
-29 -57 4 0 14 5 34 11 46 16 29 6 31 -35 7 -32 -19 -37 -19 -42 -5 -3 9 -1
30 6 46 15 35 107 130 127 130 8 0 11 -5 8 -10 -7 -11 18 -40 34 -40 6 0 11
-7 11 -16 0 -10 6 -14 15 -10 9 3 15 0 15 -9 0 -21 18 -19 23 3 3 14 6 13 14
-8 l11 -25 9 24 c8 19 11 21 16 8 5 -13 10 -14 31 -4 15 7 24 18 21 25 -3 8 0
12 7 10 7 -3 21 4 32 13 16 15 17 21 6 34 -18 22 7 20 47 -5z"/>
<path d="M4125 7830 c-50 -101 -76 -142 -90 -145 -11 -3 -72 -12 -135 -20
-193 -26 -187 -10 -52 -139 l117 -113 -27 -159 c-15 -87 -26 -159 -24 -161 1
-1 67 31 145 72 l142 76 141 -76 c78 -41 143 -73 144 -72 2 2 -9 74 -24 162
l-27 158 118 113 c135 129 141 112 -53 139 -63 8 -124 17 -135 20 -14 3 -40
44 -90 145 -38 77 -72 140 -75 140 -3 0 -37 -63 -75 -140z m145 -14 c33 -69
60 -128 60 -133 0 -5 -29 -38 -65 -73 l-65 -64 -65 64 c-36 35 -65 68 -65 73
0 20 120 257 130 257 6 0 38 -56 70 -124z m-99 -259 c7 -12 7 -22 0 -31 -9
-10 -2 -13 29 -13 31 0 38 3 29 13 -14 18 -1 39 63 100 l53 51 130 -19 c72
-10 138 -22 148 -26 16 -6 1 -24 -91 -114 l-109 -106 25 -137 c16 -89 21 -140
14 -147 -6 -6 -54 14 -136 57 l-126 67 -126 -67 c-83 -44 -130 -63 -136 -57
-7 7 -3 52 11 134 29 160 25 152 72 173 22 10 42 22 45 27 4 5 -17 -2 -46 -17
l-52 -26 -104 102 c-57 56 -101 105 -98 108 3 3 69 15 147 27 l142 21 53 -51
c30 -28 58 -59 63 -69z"/>
<path d="M2211 6537 l-68 -144 -89 -12 c-49 -7 -122 -17 -162 -23 l-74 -11
117 -117 116 -116 -27 -153 c-14 -83 -24 -154 -22 -157 3 -2 68 29 144 70
l139 74 141 -74 c78 -41 143 -74 146 -74 3 0 -8 71 -23 158 l-28 157 115 114
c62 63 112 116 110 118 -1 2 -73 13 -158 25 l-155 22 -69 139 c-38 76 -72 141
-76 143 -4 3 -39 -60 -77 -139z m145 -216 l-66 -66 1 200 1 200 65 -134 65
-134 -66 -66z m-87 -67 c-13 -16 -20 -66 -7 -58 5 3 7 13 4 21 -3 8 -1 11 4 8
6 -4 10 -62 10 -138 l0 -132 -130 -68 c-71 -37 -131 -64 -133 -60 -3 5 1 40 8
78 7 39 18 103 25 143 l12 73 59 29 c32 17 59 33 59 35 0 3 -28 -9 -61 -26
l-62 -31 -66 65 c-36 35 -84 81 -106 101 -28 26 -34 36 -21 36 9 0 15 4 12 8
-3 5 56 17 131 26 l136 18 66 -64 66 -63 -63 66 -63 66 63 127 63 127 3 -187
c2 -125 -1 -191 -9 -200z m321 106 c63 -10 111 -19 105 -20 -5 -1 -2 -5 8 -8
15 -6 7 -18 -50 -72 -37 -36 -87 -82 -110 -102 -23 -20 -39 -38 -37 -41 10 -9
52 -272 46 -283 -5 -8 -48 10 -132 55 l-125 66 -3 129 c-2 90 1 133 9 140 9 8
10 7 4 -3 -5 -9 -4 -12 3 -8 5 4 8 16 5 28 -4 16 8 35 53 80 67 67 57 66 224
39z"/>
<path d="M6043 6536 l-71 -142 -158 -23 c-87 -12 -160 -24 -161 -25 -2 -2 49
-54 113 -116 l116 -113 -27 -154 c-15 -85 -25 -157 -22 -159 2 -3 67 28 143
69 l139 74 141 -73 c78 -41 143 -74 146 -74 3 0 -7 71 -23 158 l-28 157 115
113 c64 63 114 116 111 118 -2 2 -74 14 -159 26 l-155 22 -69 139 c-38 76 -72
140 -75 143 -3 2 -38 -61 -76 -140z m144 -213 l-67 -68 1 200 0 200 67 -133
67 -132 -68 -67z m-86 -67 c-6 -7 -6 -17 -1 -26 6 -8 10 -73 10 -145 l0 -130
-128 -67 c-151 -79 -143 -87 -110 105 l22 129 48 24 c26 13 48 27 48 29 0 3
-23 -6 -51 -21 l-51 -26 -98 94 c-53 51 -98 97 -99 101 0 4 16 6 37 3 l37 -6
-35 12 c-33 10 -27 12 104 31 l138 19 67 -63 c61 -60 62 -60 16 -10 -28 30
-56 61 -62 68 -10 11 0 38 50 139 l62 125 3 -187 c1 -109 -2 -191 -7 -198z
m301 107 c70 -9 125 -20 122 -25 -3 -4 3 -8 13 -8 19 0 -62 -88 -149 -161
l-47 -40 -50 26 c-28 14 -51 23 -51 20 0 -2 22 -16 50 -30 32 -16 51 -33 55
-48 20 -93 43 -253 37 -263 -5 -9 -43 7 -132 55 l-125 67 -2 135 -3 134 21
-25 c11 -14 18 -19 14 -12 -4 7 -9 26 -12 43 -4 25 4 38 53 89 31 33 62 60 68
60 6 0 68 -7 138 -17z"/>
<path d="M974 2931 c-18 -11 -35 -24 -38 -30 -4 -6 -108 -101 -232 -212 -187
-167 -231 -212 -263 -267 -42 -72 -71 -156 -71 -208 0 -85 67 -186 152 -228
79 -39 132 -35 275 25 29 12 34 11 66 -13 18 -15 47 -52 63 -83 l29 -56 -26
-22 c-14 -12 -67 -57 -118 -101 l-93 -78 7 -65 c10 -97 50 -253 89 -346 158
-381 463 -636 885 -742 153 -39 321 -59 905 -110 159 -14 337 -33 395 -41 58
-9 347 -77 641 -151 294 -75 546 -137 560 -137 14 0 232 53 485 118 647 166
679 173 1005 201 403 35 796 77 900 95 220 40 444 134 600 251 258 194 432
495 481 830 14 98 14 98 -120 209 -56 46 -101 88 -101 94 0 24 61 116 91 137
29 20 35 21 63 9 142 -59 195 -63 274 -24 87 43 152 141 152 229 0 51 -29 135
-71 207 -32 55 -75 98 -252 256 -116 104 -223 202 -237 217 -35 38 -72 55
-120 55 -34 0 -48 -6 -71 -31 -27 -29 -49 -83 -49 -122 0 -37 22 -57 127 -113
60 -31 110 -58 111 -60 6 -4 -19 -117 -30 -137 -8 -16 -13 -14 -50 17 -48 41
-125 69 -186 68 -65 -1 -146 -46 -227 -128 -153 -154 -209 -322 -150 -449 26
-55 119 -144 188 -180 31 -17 57 -33 57 -37 0 -22 -58 -163 -91 -220 -79 -135
-191 -233 -361 -313 -173 -82 -341 -114 -698 -135 -296 -17 -493 -38 -618 -66
-173 -39 -570 -146 -850 -231 l-252 -76 -183 56 c-384 117 -868 246 -1022 271
-105 18 -258 31 -515 46 -296 17 -436 38 -580 87 -278 95 -454 255 -541 493
-16 44 -29 84 -29 88 0 4 26 20 57 37 71 37 162 126 191 186 41 86 26 186 -49
312 -83 140 -234 258 -333 259 -60 1 -137 -27 -184 -68 -37 -31 -42 -33 -50
-17 -15 29 -34 121 -28 132 4 5 50 33 103 62 108 59 133 79 133 112 0 43 -21
96 -49 126 -24 25 -37 31 -73 31 -25 0 -56 -8 -74 -19z m131 -25 c27 -27 49
-97 40 -126 -4 -11 -48 -42 -108 -74 -118 -64 -115 -65 -116 52 -1 85 15 124
62 152 44 27 92 26 122 -4z m6306 9 c61 -32 83 -111 61 -227 l-7 -37 -102 55
c-60 32 -104 63 -108 74 -9 29 13 99 40 126 28 28 72 31 116 9z m-6491 -350
c31 -148 90 -219 208 -249 l42 -11 -85 -70 c-250 -204 -417 -282 -528 -246
-54 18 -121 83 -147 142 -32 75 -25 136 28 242 46 93 53 100 297 319 l160 144
6 -106 c4 -59 12 -133 19 -165z m6755 115 c226 -198 241 -215 287 -306 68
-138 61 -228 -24 -320 -84 -91 -181 -97 -332 -20 -86 43 -317 207 -360 255
-19 21 -19 21 0 21 77 0 158 59 198 143 31 69 44 133 52 267 6 100 9 109 23
97 9 -8 79 -69 156 -137z m-6384 -155 c142 -73 289 -285 289 -419 0 -79 -80
-142 -107 -83 -6 12 -23 47 -37 78 -24 53 -55 79 -91 79 -7 0 -91 -67 -187
-150 -95 -82 -178 -149 -184 -150 -6 0 -17 13 -24 29 -17 42 -55 92 -86 112
l-27 17 30 16 c41 21 214 150 288 215 55 48 85 93 85 127 0 27 -38 52 -91 59
-70 9 -91 21 -87 48 2 16 16 26 58 39 64 20 104 16 171 -17z m5989 17 c42 -14
56 -23 58 -39 4 -27 -17 -39 -87 -48 -54 -7 -91 -32 -91 -60 0 -58 120 -175
307 -301 l84 -56 -36 -35 c-19 -19 -47 -57 -61 -85 l-25 -50 -22 19 c-145 130
-341 293 -352 293 -36 0 -66 -26 -91 -79 -14 -31 -31 -66 -37 -78 -15 -32 -44
-29 -78 8 -23 25 -29 40 -29 75 0 159 186 394 350 445 36 11 49 10 110 -9z
m-6154 -107 c91 -12 105 -25 81 -73 -11 -24 -18 -27 -56 -24 -55 3 -112 33
-145 74 l-26 33 25 22 25 22 24 -24 c15 -15 41 -26 72 -30z m6283 21 c10 -11
6 -21 -20 -51 -41 -47 -77 -64 -136 -68 -42 -2 -49 1 -60 25 -24 48 -10 61 81
73 31 4 56 15 70 29 22 23 41 21 65 -8z m-6022 -318 c12 -13 35 -54 52 -92
l31 -69 40 6 40 5 -19 -26 c-47 -66 -186 -161 -205 -142 -16 16 -21 307 -6
325 18 21 43 19 67 -7z m5693 7 c14 -17 11 -300 -4 -323 -14 -24 -140 57 -194
126 l-32 40 40 -5 40 -6 36 79 c19 42 43 83 52 91 23 17 47 16 62 -2z m-5780
-319 c60 -292 226 -494 501 -611 172 -74 346 -105 694 -125 225 -13 396 -27
485 -41 139 -23 687 -168 1038 -276 l182 -56 183 56 c350 108 898 253 1037
276 89 14 260 28 485 41 349 20 522 51 695 125 335 144 506 413 523 823 l2 62
80 -66 c44 -37 109 -92 146 -123 36 -31 121 -101 188 -156 l123 -100 -7 -65
c-8 -87 -41 -219 -76 -308 -169 -426 -503 -691 -986 -781 -111 -22 -420 -55
-838 -91 -403 -35 -389 -32 -1102 -214 l-453 -115 -487 124 c-649 165 -701
176 -1063 205 -312 25 -752 73 -849 91 -499 96 -851 390 -999 834 -37 110 -51
181 -55 262 l-2 61 265 221 265 221 6 -108 c4 -60 12 -134 19 -166z"/>
<path d="M1068 1458 c-76 -46 -138 -88 -138 -93 0 -6 7 -20 15 -32 l15 -22 61
36 c50 30 62 34 70 22 16 -25 10 -63 -21 -128 l-30 -63 22 -36 22 -36 33 69
c18 38 33 77 33 87 0 16 3 16 35 -3 41 -24 71 -20 112 15 42 36 37 77 -22 176
-28 46 -55 85 -60 87 -6 2 -72 -34 -147 -79z"/>
<path d="M7050 1319 c-65 -26 -120 -112 -101 -160 25 -66 91 -79 168 -32 66
39 75 42 96 31 26 -13 21 -51 -12 -82 -25 -24 -35 -27 -64 -22 -26 5 -38 2
-51 -13 -23 -25 -15 -38 33 -52 33 -10 43 -8 79 10 24 12 54 39 69 62 47 72
29 146 -43 169 -34 12 -41 10 -116 -29 -43 -23 -83 -39 -88 -36 -35 22 20 103
62 92 15 -4 30 1 45 15 30 28 29 34 -8 47 -37 13 -36 13 -69 0z"/>
<path d="M1271 1162 c-61 -70 -111 -129 -110 -132 0 -5 105 -95 169 -147 l28
-23 16 24 c15 24 14 25 -52 82 -37 31 -67 60 -67 63 0 4 12 21 26 40 l26 33
64 -56 c64 -56 64 -56 84 -36 19 20 19 20 -45 79 l-65 59 24 26 24 25 36 -29
c20 -16 52 -43 72 -60 l37 -30 15 24 c16 24 15 25 -78 105 l-94 81 -110 -128z"/>
<path d="M1590 1091 c-13 -25 -130 -283 -130 -287 0 -2 14 -11 30 -19 l30 -16
26 59 25 59 60 -24 c72 -29 108 -25 144 19 34 40 35 105 3 135 -23 21 -74 49
-140 76 -35 15 -38 15 -48 -2z"/>
<path d="M6757 1094 c-24 -13 -27 -20 -22 -47 3 -18 14 -97 24 -175 11 -79 22
-146 25 -149 3 -3 17 2 31 11 23 15 26 23 23 59 -3 41 -2 41 54 73 l58 33 31
-26 c30 -25 31 -26 65 -9 l35 16 -140 115 c-77 63 -143 115 -148 115 -4 -1
-21 -8 -36 -16z"/>
<path d="M6573 1012 c-28 -4 -28 -14 -3 -120 11 -46 20 -89 20 -95 0 -6 -42
30 -92 81 -88 87 -95 91 -123 83 -16 -4 -29 -12 -29 -17 1 -5 19 -80 40 -166
38 -156 38 -157 64 -151 14 3 27 8 29 10 3 2 -5 45 -17 96 -12 50 -22 96 -22
101 0 5 40 -30 89 -78 81 -79 92 -86 118 -80 15 4 31 8 34 10 8 4 -69 316 -79
325 -4 3 -17 3 -29 1z"/>
<path d="M1856 991 c-2 -3 -14 -63 -27 -133 -21 -119 -22 -130 -7 -161 21 -43
70 -67 141 -67 91 0 104 23 148 248 6 34 10 64 8 66 -2 2 -17 6 -34 8 l-30 3
-22 -112 c-28 -143 -33 -153 -82 -153 -42 0 -71 23 -71 57 0 12 9 65 20 118
11 53 20 103 20 110 0 13 -58 27 -64 16z"/>
<path d="M6213 943 c-16 -3 -23 -11 -23 -27 0 -33 31 -310 35 -314 8 -9 65 11
64 21 -4 87 -37 321 -44 322 -6 1 -20 0 -32 -2z"/>
<path d="M2187 899 c-14 -97 -30 -290 -25 -295 3 -3 54 -8 112 -11 117 -7 145
1 165 44 17 37 13 69 -12 99 l-23 27 23 23 c27 27 30 70 8 101 -19 26 -63 39
-166 48 l-76 7 -6 -43z"/>
<path d="M5888 913 c-56 -5 -54 11 -33 -188 8 -77 15 -143 15 -147 0 -5 16 -8
35 -8 l36 0 -7 64 -7 64 44 7 c75 11 104 24 122 54 21 36 22 73 2 111 -26 50
-51 55 -207 43z"/>
<path d="M2540 888 c0 -7 -7 -80 -15 -163 -7 -82 -12 -152 -9 -154 5 -5 224
-24 229 -20 1 2 5 15 7 29 3 23 -1 25 -37 28 -22 1 -60 5 -84 8 l-44 6 7 96
c4 53 9 116 12 140 l6 42 -36 0 c-22 0 -36 -5 -36 -12z"/>
<path d="M5687 893 c-28 -4 -28 -6 -23 -51 3 -26 8 -81 11 -122 12 -157 15
-170 38 -170 44 0 45 6 31 165 -7 83 -13 158 -14 168 0 9 -3 16 -7 16 -5 -1
-21 -4 -36 -6z"/>
<path d="M2822 738 c-18 -207 -18 -200 21 -196 l32 3 12 130 c6 72 12 147 12
168 1 35 0 37 -32 37 l-33 0 -12 -142z"/>
<path d="M2995 858 c-4 -15 -46 -273 -48 -302 -2 -14 6 -21 30 -26 34 -8 43 4
43 62 0 18 10 35 32 52 18 13 35 23 39 21 3 -3 18 -38 34 -80 15 -41 35 -80
45 -85 19 -10 70 -14 70 -5 0 2 -20 50 -45 106 -25 56 -45 105 -45 108 0 4 29
29 65 55 36 26 65 51 65 56 0 4 -17 10 -37 13 -34 4 -46 -2 -116 -55 -43 -33
-80 -59 -81 -57 -2 2 1 33 7 67 8 52 8 66 -4 73 -20 13 -49 11 -54 -3z"/>
<path d="M5340 813 c1 -56 25 -282 32 -288 4 -4 203 14 224 20 7 2 9 15 7 30
l-5 26 -83 -7 -82 -7 -6 44 c-4 24 -9 76 -12 114 -9 110 -11 115 -45 115 -29
0 -30 -1 -30 -47z"/>
<path d="M5168 833 c-16 -2 -28 -10 -28 -16 0 -7 15 -82 34 -167 l33 -155 29
3 c16 2 31 5 33 8 6 6 -62 334 -68 333 -3 -1 -18 -4 -33 -6z"/>
<path d="M4867 758 c-62 -16 -77 -24 -73 -37 3 -9 22 -83 42 -164 l38 -149 30
6 c16 4 31 8 33 10 4 3 -6 50 -23 108 -4 13 8 20 52 33 77 22 104 51 104 110
0 38 -5 52 -29 76 -35 35 -62 36 -174 7z"/>
<path d="M3377 636 c-54 -75 -100 -142 -103 -150 -4 -10 4 -16 26 -21 25 -5
34 -2 50 17 11 12 19 26 20 31 0 11 32 8 88 -8 48 -15 51 -18 59 -57 7 -35 13
-43 38 -49 16 -5 31 -6 33 -4 6 6 -39 349 -47 357 -4 4 -20 10 -36 14 -29 5
-34 0 -128 -130z"/>
<path d="M3861 488 c-12 -90 -21 -166 -21 -170 0 -5 13 -8 30 -8 34 0 34 0 50
124 6 44 12 81 13 82 1 2 26 -50 54 -114 50 -114 52 -117 86 -120 l34 -3 22
158 c11 87 21 164 21 171 0 7 -13 12 -30 12 -32 0 -31 3 -50 -134 -5 -37 -11
-70 -13 -72 -2 -3 -23 39 -46 93 -56 129 -65 143 -100 143 l-28 0 -22 -162z"/>
<path d="M4327 626 c-21 -8 -48 -22 -59 -33 -76 -67 -58 -230 30 -285 48 -30
130 -30 188 0 61 31 66 40 57 113 l-8 64 -55 -3 c-78 -5 -90 -10 -90 -38 0
-21 4 -24 39 -24 76 0 56 -61 -26 -76 -64 -12 -113 43 -113 128 0 58 29 96 81
104 28 5 41 1 64 -19 25 -21 34 -23 57 -15 33 12 34 16 12 47 -33 47 -106 62
-177 37z"/>
</g>
</svg>
