<?xml version="1.0" standalone="no"?>
<!DOCTYPE svg PUBLIC "-//W3C//DTD SVG 20010904//EN"
 "http://www.w3.org/TR/2001/REC-SVG-20010904/DTD/svg10.dtd">
<svg version="1.0" xmlns="http://www.w3.org/2000/svg"
 width="24.000000pt" height="24.000000pt" viewBox="0 0 24.000000 24.000000"
 preserveAspectRatio="xMidYMid meet">
<metadata>
Created by potrace 1.16, written by Peter Selinger 2001-2019
</metadata>
<g transform="translate(0.000000,24.000000) scale(0.100000,-0.100000)"
fill="#000000" stroke="none">
<path d="M0 160 c0 -66 3 -80 16 -80 12 0 14 7 9 30 -5 23 -3 32 10 36 25 10
42 -12 27 -36 -6 -11 -12 -27 -12 -35 0 -9 -9 -15 -25 -15 -21 0 -25 -5 -25
-30 l0 -30 120 0 120 0 0 30 c0 25 -4 30 -25 30 -16 0 -25 6 -25 15 0 8 -6 24
-12 35 -15 23 1 46 26 37 11 -5 14 -14 10 -37 -5 -23 -3 -30 10 -30 13 0 16
13 16 80 l0 80 -120 0 -120 0 0 -80z"/>
</g>
</svg>
