<?xml version="1.0" standalone="no"?>
<!DOCTYPE svg PUBLIC "-//W3C//DTD SVG 20010904//EN"
 "http://www.w3.org/TR/2001/REC-SVG-20010904/DTD/svg10.dtd">
<svg version="1.0" xmlns="http://www.w3.org/2000/svg"
 width="24.000000pt" height="24.000000pt" viewBox="0 0 24.000000 24.000000"
 preserveAspectRatio="xMidYMid meet">
<metadata>
Created by potrace 1.16, written by Peter Selinger 2001-2019
</metadata>
<g transform="translate(0.000000,24.000000) scale(0.100000,-0.100000)"
fill="#000000" stroke="none">
<path d="M175 230 c-3 -5 -40 -10 -81 -10 l-74 0 0 -101 0 -100 48 3 c43 3 47
5 50 31 3 21 9 27 28 27 17 0 27 8 34 25 12 32 20 32 20 -1 0 -17 -14 -40 -39
-65 l-39 -39 59 0 59 0 0 102 0 102 -38 -37 c-30 -29 -41 -34 -50 -25 -18 18
-15 32 18 63 26 25 33 28 50 17 17 -10 20 -10 20 3 0 17 -55 21 -65 5z"/>
</g>
</svg>
