<?xml version="1.0" standalone="no"?>
<!DOCTYPE svg PUBLIC "-//W3C//DTD SVG 20010904//EN"
 "http://www.w3.org/TR/2001/REC-SVG-20010904/DTD/svg10.dtd">
<svg version="1.0" xmlns="http://www.w3.org/2000/svg"
 width="720.000000pt" height="1280.000000pt" viewBox="0 0 720.000000 1280.000000"
 preserveAspectRatio="xMidYMid meet">
<metadata>
Created by potrace 1.16, written by Peter Selinger 2001-2019
</metadata>
<g transform="translate(0.000000,1280.000000) scale(0.100000,-0.100000)"
fill="#000000" stroke="none">
<path d="M0 11710 l0 -1090 63 0 c58 0 66 -3 95 -33 18 -18 32 -41 32 -50 0
-9 -19 -30 -42 -47 -33 -24 -51 -30 -95 -30 l-53 0 0 -209 c0 -173 3 -211 15
-221 19 -16 19 -30 0 -30 -13 0 -15 -165 -15 -1445 0 -1404 1 -1445 19 -1445
10 0 24 -7 31 -15 16 -19 -3 -45 -31 -45 -18 0 -19 -24 -19 -798 l0 -798 28
-11 27 -11 -27 -1 c-34 -1 -39 -31 -6 -31 19 0 141 78 313 201 39 27 88 62
110 78 86 59 385 268 472 330 51 36 122 86 158 111 36 25 117 81 180 125 63
44 151 105 194 135 55 38 80 61 80 75 0 11 -4 63 -9 115 -5 52 -14 159 -20
237 -6 78 -13 151 -15 163 -4 22 9 32 445 335 142 99 230 166 230 177 0 10 6
15 18 12 17 -4 132 72 418 277 74 53 80 60 76 88 -3 23 1 33 23 47 33 22 107
22 140 0 58 -38 2 -112 -77 -103 -39 5 -38 6 -353 -215 -79 -56 -353 -246
-508 -354 -56 -39 -136 -94 -177 -123 -41 -29 -99 -69 -127 -88 -63 -43 -60
-16 -33 -323 11 -124 20 -237 20 -251 0 -22 -18 -39 -121 -110 -67 -46 -149
-103 -183 -127 -56 -40 -88 -62 -156 -109 -14 -9 -83 -58 -155 -108 -71 -50
-159 -112 -195 -136 -36 -25 -110 -76 -165 -114 -55 -38 -113 -82 -129 -97
-16 -15 -34 -28 -41 -28 -7 0 -84 -50 -171 -112 -87 -61 -182 -127 -211 -147
l-52 -36 0 -480 0 -480 192 -107 c106 -58 192 -111 192 -117 0 -7 -85 -72
-190 -145 l-190 -133 -3 -1931 -2 -1932 3600 0 3600 0 0 6400 0 6400 -3600 0
-3600 0 0 -1090z m1159 -706 c12 -15 21 -32 21 -38 0 -7 18 -10 51 -7 142 9
205 -91 82 -133 -25 -9 -63 -16 -84 -16 -30 0 -41 6 -63 34 -26 35 -35 81 -16
88 5 2 -20 4 -57 6 -76 2 -88 10 -79 47 13 50 110 63 145 19z m-929 -254 c36
-36 25 -71 -33 -95 -49 -20 -69 -19 -101 6 -59 47 -12 103 92 108 12 1 31 -8
42 -19z m4515 -3979 c22 -10 46 -25 54 -34 10 -13 18 -14 33 -6 10 6 29 9 41
7 20 -3 17 -8 -28 -53 -61 -61 -101 -90 -161 -115 -59 -26 -67 -25 -62 4 4 20
0 25 -23 30 -16 3 -38 15 -50 27 l-21 21 -71 -45 c-71 -43 -350 -235 -374
-256 -7 -6 -14 -11 -17 -11 -2 0 -46 -27 -96 -60 -72 -48 -94 -58 -108 -51 -9
6 -12 11 -7 11 6 0 45 26 87 58 42 32 117 88 168 123 347 243 368 260 372 299
2 29 9 38 38 52 48 25 171 24 225 -1z m-2685 -2739 c47 -23 58 -56 34 -107
-27 -56 -104 -95 -187 -95 -53 0 -71 -6 -144 -45 -115 -63 -133 -58 -53 15
l65 59 -18 30 c-24 40 -21 61 11 100 19 23 43 37 77 46 73 20 173 19 215 -3z
m3368 -1148 c22 -15 30 -56 14 -81 -11 -17 -58 -33 -98 -33 -43 0 -74 -15
-194 -98 -315 -217 -431 -291 -445 -286 -11 5 -14 2 -9 -10 5 -12 2 -15 -12
-9 -10 4 -15 2 -11 -4 8 -13 -24 -39 -50 -39 -30 0 -24 7 59 62 40 27 82 57
93 67 11 10 43 34 70 52 28 19 106 75 175 124 236 170 231 165 224 199 -13 67
109 104 184 56z m220 -64 c67 -41 27 -102 -69 -104 -27 -1 -56 -8 -66 -16 -10
-8 -65 -46 -123 -85 -58 -38 -107 -73 -110 -76 -20 -23 -327 -219 -337 -215
-7 3 -13 -1 -13 -9 0 -16 -12 -20 -23 -8 -6 6 142 119 328 250 282 198 256
176 249 213 -5 25 -2 32 27 49 43 26 95 27 137 1z m-2288 -1370 c109 -56 135
-65 199 -70 66 -6 77 -10 98 -36 12 -16 23 -36 23 -45 0 -61 -165 -78 -211
-22 -7 8 -12 28 -11 43 2 26 -6 34 -94 86 -52 31 -102 63 -110 71 -8 8 -14 11
-14 6 0 -4 -5 0 -11 10 -6 9 -14 15 -19 12 -5 -3 -11 -1 -14 4 -14 22 47 0
164 -59z m639 -159 c-19 -14 -53 -45 -76 -68 -24 -24 -50 -43 -58 -43 -9 0
-48 -22 -88 -49 -40 -27 -79 -51 -87 -53 -8 -2 -18 -7 -22 -13 -9 -13 -22 1
-13 15 10 17 237 180 250 180 3 0 11 5 18 10 34 30 84 57 96 52 9 -3 3 -13
-20 -31z"/>
<path d="M0 4114 c0 -202 0 -206 19 -193 11 8 55 38 98 68 143 99 203 143 203
149 0 7 -303 182 -314 182 -3 0 -6 -93 -6 -206z"/>
</g>
</svg>
